<svg xmlns="http://www.w3.org/2000/svg" viewBox="0 0 240 240" width="1024" height="1024">

  <defs>
    <linearGradient id="sk86s-bg" x1="18%" y1="0%" x2="82%" y2="100%">
      <stop offset="0%"  stop-color="#052449"/>
      <stop offset="42%" stop-color="#0B4F8F"/>
      <stop offset="100%" stop-color="#1E84C6"/>
    </linearGradient>
    <radialGradient id="sk86s-glow" cx="28%" cy="20%" r="85%">
      <stop offset="0%"  stop-color="#ffffff" stop-opacity="0.38"/>
      <stop offset="55%" stop-color="#ffffff" stop-opacity="0"/>
    </radialGradient>
    <radialGradient id="sk86s-vignette" cx="50%" cy="100%" r="80%">
      <stop offset="0%"  stop-color="#000000" stop-opacity="0.30"/>
      <stop offset="60%" stop-color="#000000" stop-opacity="0"/>
    </radialGradient>
    <linearGradient id="sk86s-mstroke" x1="0%" y1="0%" x2="0%" y2="100%">
      <stop offset="0%"   stop-color="#FFFFFF"/>
      <stop offset="55%"  stop-color="#DCF1FB"/>
      <stop offset="100%" stop-color="#7FC8E6"/>
    </linearGradient>
    <linearGradient id="sk86s-mstroke2" x1="0%" y1="0%" x2="0%" y2="100%">
      <stop offset="0%"   stop-color="#ffffff" stop-opacity="0.95"/>
      <stop offset="100%" stop-color="#ffffff" stop-opacity="0.15"/>
    </linearGradient>
    <filter id="sk86s-shadow" x="-20%" y="-20%" width="140%" height="140%">
      <feGaussianBlur in="SourceAlpha" stdDeviation="2"/>
      <feOffset dx="0" dy="2" result="off"/>
      <feComponentTransfer><feFuncA type="linear" slope="0.45"/></feComponentTransfer>
      <feMerge><feMergeNode/><feMergeNode in="SourceGraphic"/></feMerge>
    </filter>
  </defs>
<rect width="240" height="240" rx="0" ry="0" fill="url(#sk86s-bg)"/>
       <rect width="240" height="240" rx="0" ry="0" fill="url(#sk86s-glow)"/>
       <rect width="240" height="240" rx="0" ry="0" fill="url(#sk86s-vignette)"/>

    <!-- ocean horizon (behind M) -->
    <g fill="none" stroke="#ffffff" stroke-width="3" stroke-linecap="round" opacity="0.45">
      <path d="M50 188 C70 180, 88 196, 108 188 C128 180, 148 196, 168 188 C184 182, 196 192, 196 192"/>
      <path d="M64 204 C80 198, 98 212, 114 204 C130 198, 150 212, 166 204" opacity="0.65"/>
    </g>

    <!-- bubbles -->
    <g fill="none" stroke="#ffffff" stroke-width="1.8" opacity="0.7">
      <circle cx="56" cy="60" r="3"/>
      <circle cx="184" cy="52" r="4"/>
      <circle cx="200" cy="70" r="2"/>
      <circle cx="46" cy="80" r="1.6"/>
    </g>

    <!-- main M (wave double-arch) -->
    <g fill="none" stroke="url(#sk86s-mstroke)" stroke-width="11.5" stroke-linecap="round" stroke-linejoin="round"
       filter="url(#sk86s-shadow)">
      <path d="M50 168 C50 112, 70 76, 92 88 C108 96, 114 116, 122 124 C130 116, 136 96, 152 88 C174 76, 194 112, 194 168"/>
    </g>

    <!-- inner highlight stroke (gives the M a "lit" ridge) -->

    <g fill="none" stroke="#ffffff" stroke-width="3.5" stroke-linecap="round" stroke-linejoin="round" opacity="0.65">
      <path d="M58 152 C60 116, 74 92, 90 100"/>
      <path d="M154 100 C170 92, 184 116, 186 152"/>
    </g>

    <!-- foam droplets on each wave peak -->
    <g fill="#ffffff">
      <circle cx="83" cy="80" r="3.2"/>
      <circle cx="161" cy="80" r="3.2"/>
      <circle cx="89" cy="72" r="1.6" opacity="0.8"/>
      <circle cx="155" cy="72" r="1.6" opacity="0.8"/>
    </g>

    <!-- cute fish nestled in the M's valley -->
    <g>
      <path d="M104 144 C104 139, 114 135, 122 137 C128 138, 132 141, 132 144 C132 147, 128 151, 122 152 C114 154, 104 149, 104 144 Z" fill="#ffffff"/>
      <path d="M104 144 C100 142, 96 141, 92 142 C92 146, 92 148, 92 148 C96 148, 100 146, 104 144 Z" fill="#ffffff"/>
      <circle cx="127" cy="142" r="1.6" fill="#052449"/>
      <path d="M120 148 C122 150, 126 150, 128 148" fill="none" stroke="#052449" stroke-width="1" stroke-linecap="round"/>
      <path d="M111 140 L111 148" stroke="#052449" stroke-width="0.8" stroke-linecap="round" opacity="0.4"/>
    </g>

</svg>